# xmcd CD database file
#
# Track frame offsets:
#	150
#	25025
#	41693
#	61478
#	88675
#	104988
#	124538
#	147050
#
# Disc length: 2245 seconds
#
# Revision: 0
# Processed by: cddbd v1.5.2PL0 Copyright (c) Steve Scherf et al.
# Submitted via: CDex 1.70beta2
#
DISCID=6b08c308
DTITLE=Pat Metheny - Bright Size life
DYEAR=1976
DGENRE=Jazz
TTITLE0=Bright Size Life
TTITLE1=Sirabhorn
TTITLE2=Unity Village
TTITLE3=Missouri Uncompromised
TTITLE4=Midwestern Nights Dream
TTITLE5=Unquity Road
TTITLE6=Omaha Celebration
TTITLE7=Round Trip/Broadway Blues
EXTD=YEAR: 1976
EXTT0=
EXTT1=
EXTT2=
EXTT3=
EXTT4=
EXTT5=
EXTT6=
EXTT7=
PLAYORDER=
